<svg width="685" height="746" viewBox="0 0 685 746" fill="none" xmlns="http://www.w3.org/2000/svg">
<g opacity="0.25">
<path d="M209.606 9.34472L80.71 140.235L89.1767 148.573L218.072 17.6824L209.606 9.34472Z" fill="#CFEE13"/>
<path d="M231.442 39.9621L102.546 170.853L111.013 179.191L239.909 48.2998L231.442 39.9621Z" fill="#CFEE13"/>
<path d="M744.36 527.207L615.465 658.098L623.931 666.436L752.827 535.545L744.36 527.207Z" fill="#CFEE13"/>
<path d="M754.585 273.971L625.689 404.862L634.156 413.199L763.052 282.309L754.585 273.971Z" fill="#CFEE13"/>
<path d="M225.575 98.832L18.4672 309.145L26.934 317.483L234.041 107.17L225.575 98.832Z" fill="#CFEE13"/>
<path d="M733.275 66.5837L604.38 197.474L612.846 205.812L741.742 74.9214L733.275 66.5837Z" fill="#CFEE13"/>
<path d="M243.496 558.654L114.6 689.544L123.067 697.882L251.963 566.991L243.496 558.654Z" fill="#CFEE13"/>
<path d="M400.36 278.823L297.909 382.86L307.554 392.358L410.005 288.321L400.36 278.823Z" fill="#CFEE13"/>
<path d="M424.992 316.238L313.623 429.331L323.269 438.829L434.638 325.736L424.992 316.238Z" fill="#CFEE13"/>
<path d="M200.358 659.833L123.559 737.821L131.849 745.985L208.648 667.997L200.358 659.833Z" fill="#CFEE13"/>
<path d="M486.977 367.793L410.177 445.781L419.823 455.28L496.622 377.291L486.977 367.793Z" fill="#CFEE13"/>
<path d="M591.926 437.976L515.126 515.964L524.771 525.462L601.571 447.474L591.926 437.976Z" fill="#CFEE13"/>
<path d="M635.641 454.221L521.08 570.555L530.726 580.054L645.287 463.72L635.641 454.221Z" fill="#CFEE13"/>
<path d="M723.686 21.1072L618.991 127.423L628.637 136.921L733.332 30.6055L723.686 21.1072Z" fill="#CFEE13"/>
<path d="M771.196 623.612L694.396 701.601L704.042 711.099L780.841 633.111L771.196 623.612Z" fill="#CFEE13"/>
<path d="M802.616 654.566L725.816 732.554L735.462 742.052L812.261 664.064L802.616 654.566Z" fill="#CFEE13"/>
<path d="M503.856 408.981L427.056 486.969L436.701 496.468L513.501 418.479L503.856 408.981Z" fill="#CFEE13"/>
<path d="M461.104 341.797L289.186 516.377L298.831 525.875L470.75 351.296L461.104 341.797Z" fill="#CFEE13"/>
<path d="M597.78 373.977L425.861 548.557L435.507 558.055L607.425 383.475L597.78 373.977Z" fill="#CFEE13"/>
<path d="M295.45 78.8133L93.0243 284.372L102.198 293.406L304.624 87.8474L295.45 78.8133Z" fill="#CFEE13"/>
<path d="M287.869 141.732L85.4426 347.292L94.6165 356.326L297.043 150.767L287.869 141.732Z" fill="#CFEE13"/>
<path d="M852.488 0L581.33 275.356L592.841 286.692L864 11.3362L852.488 0Z" fill="#CFEE13"/>
<path d="M296.316 193.462L93.8898 399.021L103.064 408.056L305.49 202.496L296.316 193.462Z" fill="#CFEE13"/>
<path d="M852.161 232.403L649.735 437.962L658.909 446.996L861.334 241.437L852.161 232.403Z" fill="#CFEE13"/>
<path d="M348.655 201.286L0 555.337L9.17395 564.371L357.829 210.32L348.655 201.286Z" fill="#CFEE13"/>
<path d="M769.032 373.537L566.606 579.096L575.78 588.13L778.206 382.571L769.032 373.537Z" fill="#CFEE13"/>
<path d="M812.25 156.655L609.824 362.214L618.998 371.248L821.424 165.689L812.25 156.655Z" fill="#CFEE13"/>
<path d="M797.066 111.654L594.64 317.213L603.814 326.247L806.24 120.688L797.066 111.654Z" fill="#CFEE13"/>
<path d="M842.538 361.588L640.112 567.147L649.286 576.181L851.712 370.622L842.538 361.588Z" fill="#CFEE13"/>
<path d="M265.199 478.995L62.7727 684.554L71.9466 693.589L274.373 488.029L265.199 478.995Z" fill="#CFEE13"/>
<path d="M854.078 481.635L651.653 687.194L660.826 696.228L863.252 490.669L854.078 481.635Z" fill="#CFEE13"/>
<path d="M289.772 392.45L87.3459 598.009L96.5199 607.043L298.946 401.484L289.772 392.45Z" fill="#CFEE13"/>
<path d="M378.52 235.529L71.399 547.404L80.573 556.438L387.694 244.563L378.52 235.529Z" fill="#CFEE13"/>
</g>
</svg>
